<?xml version="1.0" encoding="utf-8"?>
<!-- Generator: Adobe Illustrator 19.2.0, SVG Export Plug-In . SVG Version: 6.00 Build 0)  -->
<svg version="1.1" id="Layer_1" xmlns="http://www.w3.org/2000/svg" xmlns:xlink="http://www.w3.org/1999/xlink" x="0px" y="0px"
	 viewBox="0 0 91 91" style="enable-background:new 0 0 91 91;" xml:space="preserve">
<style type="text/css">
	.st0{fill:#FFFFFF;}
</style>
<g>
	<path class="st0" d="M68.7,63.2H23.8c-1.2,0-2.2,1-2.2,2.2s1,2.2,2.2,2.2h44.9c1.2,0,2.2-1,2.2-2.2S70,63.2,68.7,63.2z"/>
	<path class="st0" d="M75.5,55.2h-60c-1.2,0-2.2,1-2.2,2.2s1,2.2,2.2,2.2h59.9c1.2,0,2.2-1,2.2-2.2S76.7,55.2,75.5,55.2z"/>
	<path class="st0" d="M18.4,51.8h54.2c1.2,0,2.2-1,2.2-2.2s-1-2.2-2.2-2.2H18.4c-1.2,0-2.2,1-2.2,2.2S17.2,51.8,18.4,51.8z"/>
	<path class="st0" d="M28.2,43.8h34.6c1.2,0,2.2-1,2.2-2.2s-1-2.2-2.2-2.2H28.2c-1.2,0-2.2,1-2.2,2.2S26.9,43.8,28.2,43.8z"/>
	<path class="st0" d="M30.8,35.8h24.9c1.2,0,2.2-1,2.2-2.2s-1-2.2-2.2-2.2H30.8c-1.2,0-2.2,1-2.2,2.2S29.6,35.8,30.8,35.8z"/>
	<path class="st0" d="M38.4,27.8H48c1.2,0,2.2-1,2.2-2.2s-1-2.2-2.2-2.2h-9.6c-1.2,0-2.2,1-2.2,2.2S37.2,27.8,38.4,27.8z"/>
</g>
</svg>
