<?xml version="1.0" encoding="utf-8"?>
<!-- Generator: Adobe Illustrator 19.2.0, SVG Export Plug-In . SVG Version: 6.00 Build 0)  -->
<svg version="1.1" id="Layer_1" xmlns="http://www.w3.org/2000/svg" xmlns:xlink="http://www.w3.org/1999/xlink" x="0px" y="0px"
	 viewBox="0 0 91 91" style="enable-background:new 0 0 91 91;" xml:space="preserve">
<style type="text/css">
	.st0{fill:#FFFFFF;}
</style>
<g>
	<path class="st0" d="M85.4,14.3c-0.3-1.1-1.8-4.7-8.8-4.7H41.7l0,0c-2.2,0-4,1.8-4,4v63.7c0,2.2,1.8,4,4,4s4-1.8,4-4V47.9h20.8
		c2.2,0,4-1.8,4-4s-1.8-4-4-4H45.6V17.7h30.9c1,0,1.5,0.1,1.8,0.2c0.8,1,1.9,1.5,3.2,1.5c0.4,0,0.7,0,1.1-0.1
		C84.7,18.7,85.9,16.5,85.4,14.3z"/>
	<path class="st0" d="M17.9,9.7c-7.8,0-12.4,5.2-12.4,13.9s4.6,13.9,12.4,13.9s12.4-5.2,12.4-13.9S25.6,9.7,17.9,9.7z M17.9,29.6
		c-1.9,0-4.4,0-4.4-5.9s2.5-5.9,4.4-5.9s4.4,0,4.4,5.9S19.7,29.6,17.9,29.6z"/>
</g>
</svg>
