<?xml version="1.0" encoding="utf-8"?>
<!-- Generator: Adobe Illustrator 19.2.0, SVG Export Plug-In . SVG Version: 6.00 Build 0)  -->
<svg version="1.1" id="Layer_1" xmlns="http://www.w3.org/2000/svg" xmlns:xlink="http://www.w3.org/1999/xlink" x="0px" y="0px"
	 viewBox="0 0 91 91" style="enable-background:new 0 0 91 91;" xml:space="preserve">
<style type="text/css">
	.st0{fill:#FFFFFF;}
</style>
<g>
	<path class="st0" d="M31.7,15.1c-2.1-0.6-4.3,0.7-4.9,2.8L24.6,26c-0.6,2.1,0.7,4.3,2.8,4.9c0.3,0.1,0.7,0.1,1,0.1
		c1.8,0,3.4-1.2,3.9-3l2.2-8.1C35.1,17.8,33.8,15.6,31.7,15.1z"/>
	<path class="st0" d="M71.7,15.1c-2.1-0.6-4.3,0.7-4.9,2.8L64.6,26c-0.6,2.1,0.7,4.3,2.8,4.9c0.3,0.1,0.7,0.1,1,0.1
		c1.8,0,3.4-1.2,3.9-3l2.2-8.1C75.1,17.8,73.8,15.6,71.7,15.1z"/>
	<path class="st0" d="M47.6,30.1c-2.1-0.6-4.3,0.7-4.9,2.8L40.5,41c-0.6,2.1,0.7,4.3,2.8,4.9c0.3,0.1,0.7,0.1,1,0.1
		c1.8,0,3.4-1.2,3.9-3l2.2-8.1C51,32.8,49.8,30.6,47.6,30.1z"/>
	<path class="st0" d="M23.6,45.1c-2.1-0.6-4.3,0.7-4.9,2.8L16.5,56c-0.6,2.1,0.7,4.3,2.8,4.9c0.3,0.1,0.7,0.1,1,0.1
		c1.8,0,3.4-1.2,3.9-3l2.2-8.1C27,47.8,25.7,45.6,23.6,45.1z"/>
	<path class="st0" d="M63.6,45.1c-2.1-0.6-4.3,0.7-4.9,2.8L56.5,56c-0.6,2.1,0.7,4.3,2.8,4.9c0.3,0.1,0.7,0.1,1,0.1
		c1.8,0,3.4-1.2,3.9-3l2.2-8.1C67,47.8,65.7,45.6,63.6,45.1z"/>
	<path class="st0" d="M39.6,60.1c-2.1-0.6-4.3,0.7-4.9,2.8L32.5,71c-0.6,2.1,0.7,4.3,2.8,4.9c0.3,0.1,0.7,0.1,1,0.1
		c1.8,0,3.4-1.2,3.9-3l2.2-8.1C43,62.8,41.7,60.6,39.6,60.1z"/>
</g>
</svg>
