<?xml version="1.0" encoding="utf-8"?>
<!-- Generator: Adobe Illustrator 19.2.0, SVG Export Plug-In . SVG Version: 6.00 Build 0)  -->
<svg version="1.1" id="Layer_1" xmlns="http://www.w3.org/2000/svg" xmlns:xlink="http://www.w3.org/1999/xlink" x="0px" y="0px"
	 viewBox="0 0 91 91" style="enable-background:new 0 0 91 91;" xml:space="preserve">
<style type="text/css">
	.st0{fill:#FFFFFF;}
</style>
<g>
	<path class="st0" d="M78.3,15.5c0-0.2-0.1-0.4-0.2-0.6c0,0,0-0.1-0.1-0.1c-0.1-0.2-0.2-0.4-0.3-0.6l0,0c-0.1-0.2-0.3-0.4-0.4-0.5
		l-0.1-0.1c-0.2-0.1-0.3-0.3-0.5-0.4l0,0c0,0,0,0-0.1,0c-0.2-0.1-0.4-0.2-0.5-0.3c0,0-0.1,0-0.1-0.1c-0.2-0.1-0.4-0.1-0.6-0.2
		c-0.1,0-0.1,0-0.2,0c-0.2,0-0.5-0.1-0.7-0.1l0,0c0,0,0,0-0.1,0c-0.2,0-0.4,0-0.6,0.1h-0.1c-0.2,0-0.4,0.1-0.5,0.1l-59,21.4
		c-1.6,0.6-2.6,2.1-2.6,3.8s1,3.2,2.6,3.8l56.1,20.6v25.1c0,2.2,1.8,4,4,4s4-1.8,4-4V59.5V16.3C78.3,16.1,78.3,15.8,78.3,15.5
		C78.3,15.6,78.3,15.5,78.3,15.5z M27.2,37.9l43.1-15.8v31.7L27.2,37.9z"/>
	<path class="st0" d="M74.4,9.6c1.3,0,2.6-0.5,3.5-1.5c0.9-0.9,1.5-2.2,1.5-3.5S78.9,2,77.9,1.1c-0.9-0.9-2.2-1.5-3.5-1.5
		s-2.6,0.5-3.5,1.5C70,2,69.4,3.3,69.4,4.6s0.5,2.6,1.5,3.5C71.8,9.1,73.1,9.6,74.4,9.6z"/>
</g>
</svg>
