<?xml version="1.0" encoding="utf-8"?>
<!-- Generator: Adobe Illustrator 19.2.0, SVG Export Plug-In . SVG Version: 6.00 Build 0)  -->
<svg version="1.1" id="Layer_1" xmlns="http://www.w3.org/2000/svg" xmlns:xlink="http://www.w3.org/1999/xlink" x="0px" y="0px"
	 viewBox="0 0 91 91" style="enable-background:new 0 0 91 91;" xml:space="preserve">
<style type="text/css">
	.st0{fill:#FFFFFF;}
</style>
<g>
	<path class="st0" d="M18.7,32.1h47.8c2.2,0,4-1.8,4-4s-1.8-4-4-4H18.7c-2.2,0-4,1.8-4,4S16.5,32.1,18.7,32.1z"/>
	<path class="st0" d="M68,45.8c0-2.2-1.8-4-4-4H4.1c-2.2,0-4,1.8-4,4s1.8,4,4,4H64C66.2,49.8,68,48,68,45.8z"/>
	<path class="st0" d="M86.9,59.4H27c-2.2,0-4,1.8-4,4c0,2.2,1.8,4,4,4h59.9c2.2,0,4-1.8,4-4C90.9,61.2,89.1,59.4,86.9,59.4z"/>
	<path class="st0" d="M78.4,32.6h0.2c2.5,0,4.5-2,4.5-4.5s-2-4.5-4.5-4.5h-0.2c-2.5,0-4.5,2-4.5,4.5S75.9,32.6,78.4,32.6z"/>
</g>
</svg>
