<?xml version="1.0" encoding="utf-8"?>
<!-- Generator: Adobe Illustrator 19.2.0, SVG Export Plug-In . SVG Version: 6.00 Build 0)  -->
<svg version="1.1" id="Layer_1" xmlns="http://www.w3.org/2000/svg" xmlns:xlink="http://www.w3.org/1999/xlink" x="0px" y="0px"
	 viewBox="0 0 64 64" style="enable-background:new 0 0 64 64;" xml:space="preserve">
<style type="text/css">
	.st0{fill:#FFFFFF;}
</style>
<path class="st0" d="M27.3,51.1c0,4.7-2.9,8.4-11.1,8.7c-4.8-2.7-8.8-6.7-11.7-11.4C6,44.7,10.6,42,15.9,42c1.5,0,2.9,0.3,4.2,0.7
	c3.5,2.4,6.3,3.9,7,6.7C27.2,50,27.3,50.5,27.3,51.1L27.3,51.1z M32,0C22.8,0,14.4,3.9,8.6,10.2c2.3-1.3,5-2,7.9-2c4.2,0,16,0,16,0
	L29,11.9h-4.2c3,1.7,4.5,5.2,4.5,9.1c0,3.5-2,6.4-4.7,8.6c-2.7,2.1-3.2,3-3.2,4.8c0,1.5,3.2,3.8,4.7,4.9c5.2,3.9,6.2,6.3,6.2,11.2
	c0,4.9-4.3,9.8-11.6,11.5C24.2,63.3,28,64,32,64c17.7,0,32-14.3,32-32S49.7,0,32,0L32,0z M48,24v8h-4v-8h-8v-4h8v-8h4v8h8v4H48z
	 M22.9,21.2c0.7,5.7-1.7,9.3-6.1,9.2c-4.3-0.1-8.4-4.1-9.2-9.8c-0.7-5.7,2.2-10,6.5-9.9C18.4,10.9,22.1,15.5,22.9,21.2L22.9,21.2z
	 M13.8,40.1c-4.7,0-8.6,1.6-11.4,4C0.8,40.4,0,36.3,0,32c0-3.5,0.6-7,1.6-10.1c0.5,6.2,4.8,11,12.1,11c0.5,0,1,0,1.6-0.1
	c-0.5,1-0.9,2-0.9,3.1c0,1.9,1,2.9,2.3,4.2C15.8,40.1,14.8,40.1,13.8,40.1L13.8,40.1z"/>
</svg>
