<?xml version="1.0" encoding="utf-8"?>
<!-- Generator: Adobe Illustrator 19.2.0, SVG Export Plug-In . SVG Version: 6.00 Build 0)  -->
<svg version="1.1" id="Layer_1" xmlns="http://www.w3.org/2000/svg" xmlns:xlink="http://www.w3.org/1999/xlink" x="0px" y="0px"
	 viewBox="0 0 64 64" style="enable-background:new 0 0 64 64;" xml:space="preserve">
<style type="text/css">
	.st0{fill:#FFFFFF;}
</style>
<path class="st0" d="M62,54.5L46.9,41.6c-1.6-1.4-3.2-2.1-4.6-2C45.8,35.4,48,29.9,48,24C48,10.7,37.3,0,24,0S0,10.7,0,24
	s10.7,24,24,24c5.9,0,11.4-2.2,15.6-5.7c-0.1,1.4,0.6,3,2,4.6L54.5,62c2.2,2.5,5.8,2.7,8,0.5C64.7,60.3,64.5,56.7,62,54.5L62,54.5z
	 M24,40c-8.8,0-16-7.2-16-16S15.2,8,24,8s16,7.2,16,16S32.8,40,24,40z"/>
</svg>
