<?xml version="1.0" encoding="utf-8"?>
<!-- Generator: Adobe Illustrator 19.2.0, SVG Export Plug-In . SVG Version: 6.00 Build 0)  -->
<svg version="1.1" id="Layer_1" xmlns="http://www.w3.org/2000/svg" xmlns:xlink="http://www.w3.org/1999/xlink" x="0px" y="0px"
	 viewBox="0 0 91 91" style="enable-background:new 0 0 91 91;" xml:space="preserve">
<style type="text/css">
	.st0{fill:#FFFFFF;}
</style>
<g>
	<path class="st0" d="M57.2,16.2c2.2,0,4-1.8,4-4V4.1c0-2.2-1.8-4-4-4s-4,1.8-4,4v8.1C53.2,14.5,55,16.2,57.2,16.2z"/>
	<path class="st0" d="M57.2,74.8c-2.2,0-4,1.8-4,4v8.1c0,2.2,1.8,4,4,4s4-1.8,4-4v-8.1C61.2,76.5,59.4,74.8,57.2,74.8z"/>
	<path class="st0" d="M27.9,45.5c0-2.2-1.8-4-4-4h-8.1c-2.2,0-4,1.8-4,4s1.8,4,4,4h8.1C26.2,49.5,27.9,47.7,27.9,45.5z"/>
	<path class="st0" d="M30.9,66.2L25.1,72c-1.6,1.6-1.6,4.1,0,5.7c0.8,0.8,1.8,1.2,2.8,1.2s2-0.4,2.8-1.2l5.8-5.8
		c1.6-1.6,1.6-4.1,0-5.7C35,64.6,32.4,64.6,30.9,66.2z"/>
	<path class="st0" d="M30.9,24.8c0.8,0.8,1.8,1.2,2.8,1.2s2-0.4,2.8-1.2c1.6-1.6,1.6-4.1,0-5.7l-5.8-5.8c-1.6-1.6-4.1-1.6-5.7,0
		s-1.6,4.1,0,5.7L30.9,24.8z"/>
	<path class="st0" d="M57.2,23.5c-12.1,0-22,9.9-22,22s9.9,22,22,22s22-9.9,22-22S69.3,23.5,57.2,23.5z M57.2,59.5
		c-7.7,0-14-6.3-14-14s6.3-14,14-14c0.8,0,1.6,0.1,2.4,0.2c-3.9,3.3-6.4,8.2-6.4,13.8c0,5.5,2.5,10.5,6.4,13.8
		C58.8,59.4,58,59.5,57.2,59.5z"/>
</g>
</svg>
