<?xml version="1.0" encoding="utf-8"?>
<!-- Generator: Adobe Illustrator 19.2.0, SVG Export Plug-In . SVG Version: 6.00 Build 0)  -->
<svg version="1.1" id="Layer_1" xmlns="http://www.w3.org/2000/svg" xmlns:xlink="http://www.w3.org/1999/xlink" x="0px" y="0px"
	 viewBox="0 0 91 91" style="enable-background:new 0 0 91 91;" xml:space="preserve">
<style type="text/css">
	.st0{fill:#FFFFFF;}
</style>
<g>
	<path class="st0" d="M45.5,23.5c-12.1,0-22,9.9-22,22s9.9,22,22,22s22-9.9,22-22S57.6,23.5,45.5,23.5z M45.5,59.5
		c-7.7,0-14-6.3-14-14s6.3-14,14-14s14,6.3,14,14S53.2,59.5,45.5,59.5z"/>
	<path class="st0" d="M45.5,16.2c2.2,0,4-1.8,4-4V4.1c0-2.2-1.8-4-4-4s-4,1.8-4,4v8.1C41.5,14.5,43.3,16.2,45.5,16.2z"/>
	<path class="st0" d="M86.9,41.5h-8.1c-2.2,0-4,1.8-4,4s1.8,4,4,4h8.1c2.2,0,4-1.8,4-4S89.1,41.5,86.9,41.5z"/>
	<path class="st0" d="M45.5,74.8c-2.2,0-4,1.8-4,4v8.1c0,2.2,1.8,4,4,4s4-1.8,4-4v-8.1C49.5,76.5,47.7,74.8,45.5,74.8z"/>
	<path class="st0" d="M16.2,45.5c0-2.2-1.8-4-4-4H4.1c-2.2,0-4,1.8-4,4s1.8,4,4,4h8.1C14.5,49.5,16.2,47.7,16.2,45.5z"/>
	<path class="st0" d="M69,26c1,0,2-0.4,2.8-1.2l5.8-5.8c1.6-1.6,1.6-4.1,0-5.7s-4.1-1.6-5.7,0l-5.8,5.8c-1.6,1.6-1.6,4.1,0,5.7
		C67,25.6,68,26,69,26z"/>
	<path class="st0" d="M71.8,66.2c-1.6-1.6-4.1-1.6-5.7,0s-1.6,4.1,0,5.7l5.8,5.8c0.8,0.8,1.8,1.2,2.8,1.2s2-0.4,2.8-1.2
		c1.6-1.6,1.6-4.1,0-5.7L71.8,66.2z"/>
	<path class="st0" d="M19.2,66.2L13.4,72c-1.6,1.6-1.6,4.1,0,5.7c0.8,0.8,1.8,1.2,2.8,1.2s2-0.4,2.8-1.2l5.8-5.8
		c1.6-1.6,1.6-4.1,0-5.7C23.3,64.6,20.7,64.6,19.2,66.2z"/>
	<path class="st0" d="M19.2,24.8C19.9,25.6,21,26,22,26s2-0.4,2.8-1.2c1.6-1.6,1.6-4.1,0-5.7L19,13.3c-1.6-1.6-4.1-1.6-5.7,0
		s-1.6,4.1,0,5.7L19.2,24.8z"/>
</g>
</svg>
