<?xml version="1.0" encoding="utf-8"?>
<!-- Generator: Adobe Illustrator 19.2.0, SVG Export Plug-In . SVG Version: 6.00 Build 0)  -->
<svg version="1.1" id="Layer_1" xmlns="http://www.w3.org/2000/svg" xmlns:xlink="http://www.w3.org/1999/xlink" x="0px" y="0px"
	 viewBox="0 0 91 91" style="enable-background:new 0 0 91 91;" xml:space="preserve">
<style type="text/css">
	.st0{fill:#FFFFFF;}
</style>
<g>
	<path class="st0" d="M17.8,14.1H64c2.2,0,4-1.8,4-4s-1.8-4-4-4H17.8c-2.2,0-4,1.8-4,4S15.6,14.1,17.8,14.1z"/>
	<path class="st0" d="M64.3,27.8c0-2.2-1.8-4-4-4h-46c-2.2,0-4,1.8-4,4s1.8,4,4,4h46C62.5,31.8,64.3,30,64.3,27.8z"/>
	<path class="st0" d="M72.9,41.4H32.1c-2.2,0-4,1.8-4,4s1.8,4,4,4h40.8c2.2,0,4-1.8,4-4S75.1,41.4,72.9,41.4z"/>
	<path class="st0" d="M76.1,5.6L76.1,5.6c-2.6,0-4.6,2-4.6,4.5s2,4.5,4.5,4.5h0.2c2.5,0,4.5-2,4.5-4.5C80.6,7.6,78.6,5.6,76.1,5.6z"
		/>
	<path class="st0" d="M62.8,59.4H39.2c-2.2,0-4,1.8-4,4c0,2.2,1.8,4,4,4h23.6c2.2,0,4-1.8,4-4C66.8,61.2,65,59.4,62.8,59.4z"/>
	<path class="st0" d="M46.5,77.4H35.3c-2.2,0-4,1.8-4,4s1.8,4,4,4h11.2c2.2,0,4-1.8,4-4S48.7,77.4,46.5,77.4z"/>
</g>
</svg>
