<?xml version="1.0" encoding="utf-8"?>
<!-- Generator: Adobe Illustrator 19.2.0, SVG Export Plug-In . SVG Version: 6.00 Build 0)  -->
<svg version="1.1" id="Layer_1" xmlns="http://www.w3.org/2000/svg" xmlns:xlink="http://www.w3.org/1999/xlink" x="0px" y="0px"
	 viewBox="0 0 64 64" style="enable-background:new 0 0 64 64;" xml:space="preserve">
<style type="text/css">
	.st0{fill:#FFFFFF;}
</style>
<path class="st0" d="M32,0C14.3,0,0,14.3,0,32s14.3,32,32,32s32-14.3,32-32S49.7,0,32,0z M47.9,23.8c0,0.4,0,0.7,0,1.1
	c0,10.8-8.3,23.3-23.3,23.3c-4.6,0-8.9-1.4-12.6-3.7c0.6,0.1,1.3,0.1,2,0.1c3.8,0,7.4-1.3,10.2-3.5c-3.6-0.1-6.6-2.4-7.7-5.7
	c0.5,0.1,1,0.1,1.5,0.1c0.7,0,1.5-0.1,2.2-0.3c-3.8-0.8-6.6-4.1-6.6-8c0,0,0-0.1,0-0.1c1.1,0.6,2.4,1,3.7,1c-2.2-1.5-3.7-4-3.7-6.8
	c0-1.5,0.4-2.9,1.1-4.1c4,5,10.1,8.2,16.9,8.6c-0.1-0.6-0.2-1.2-0.2-1.9c0-4.5,3.7-8.2,8.2-8.2c2.4,0,4.5,1,6,2.6
	c1.9-0.4,3.6-1.1,5.2-2c-0.6,1.9-1.9,3.5-3.6,4.5c1.7-0.2,3.2-0.6,4.7-1.3C50.9,21.2,49.5,22.7,47.9,23.8z"/>
</svg>
